<svg width="100%" height="100%" viewBox="0 0 920 250" fill="none" xmlns="http://www.w3.org/2000/svg">
  <defs>
    <!-- Background Gradients -->
    <linearGradient id="bgGradient" x1="0%" y1="0%" x2="100%" y2="100%">
      <stop offset="0%" stop-color="#050814" />
      <stop offset="50%" stop-color="#090e1d" />
      <stop offset="100%" stop-color="#0f1629" />
    </linearGradient>

    <!-- Radial Nebula Glows -->
    <radialGradient id="glowCyan" cx="18%" cy="45%" r="55%">
      <stop offset="0%" stop-color="#00f2fe" stop-opacity="0.28" />
      <stop offset="100%" stop-color="#000000" stop-opacity="0" />
    </radialGradient>

    <radialGradient id="glowPurple" cx="82%" cy="65%" r="55%">
      <stop offset="0%" stop-color="#8b5cf6" stop-opacity="0.22" />
      <stop offset="100%" stop-color="#000000" stop-opacity="0" />
    </radialGradient>

    <radialGradient id="magicBlastGlow" cx="20%" cy="50%" r="50%">
      <stop offset="0%" stop-color="#00f2fe" stop-opacity="0.6" />
      <stop offset="40%" stop-color="#8b5cf6" stop-opacity="0.3" />
      <stop offset="100%" stop-color="#000000" stop-opacity="0" />
    </radialGradient>

    <!-- Text Shimmer Animation -->
    <linearGradient id="textShimmer" x1="0%" y1="0%" x2="100%" y2="0%">
      <stop offset="0%" stop-color="#ffffff" />
      <stop offset="25%" stop-color="#38bdf8" />
      <stop offset="50%" stop-color="#ffffff" />
      <stop offset="75%" stop-color="#a855f7" />
      <stop offset="100%" stop-color="#ffffff" />
      <animate attributeName="x1" from="-100%" to="100%" dur="6s" repeatCount="indefinite" />
      <animate attributeName="x2" from="0%" to="200%" dur="6s" repeatCount="indefinite" />
    </linearGradient>

    <!-- Gold Gradients for Frieren's Accents and Staff -->
    <linearGradient id="goldStaffGrad" x1="0%" y1="0%" x2="100%" y2="100%">
      <stop offset="0%" stop-color="#fef08a" />
      <stop offset="35%" stop-color="#fbbf24" />
      <stop offset="70%" stop-color="#d97706" />
      <stop offset="100%" stop-color="#92400e" />
    </linearGradient>

    <linearGradient id="goldTrimGrad" x1="0%" y1="0%" x2="0%" y2="100%">
      <stop offset="0%" stop-color="#fde68a" />
      <stop offset="50%" stop-color="#f59e0b" />
      <stop offset="100%" stop-color="#b45309" />
    </linearGradient>

    <!-- Frieren Hair Gradient -->
    <linearGradient id="frierenHairGrad" x1="0%" y1="0%" x2="100%" y2="100%">
      <stop offset="0%" stop-color="#ffffff" />
      <stop offset="50%" stop-color="#f1f5f9" />
      <stop offset="85%" stop-color="#cbd5e1" />
      <stop offset="100%" stop-color="#a5b4fc" />
    </linearGradient>

    <linearGradient id="frierenRobeGrad" x1="0%" y1="0%" x2="100%" y2="100%">
      <stop offset="0%" stop-color="#ffffff" />
      <stop offset="70%" stop-color="#f8fafc" />
      <stop offset="100%" stop-color="#e2e8f0" />
    </linearGradient>

    <linearGradient id="frierenSkinGrad" x1="0%" y1="0%" x2="0%" y2="100%">
      <stop offset="0%" stop-color="#fff1f2" />
      <stop offset="50%" stop-color="#ffedd5" />
      <stop offset="100%" stop-color="#fed7aa" />
    </linearGradient>

    <!-- Zoltraak Energy Beam Gradients -->
    <linearGradient id="beamAuraGrad" x1="100%" y1="0%" x2="0%" y2="0%">
      <stop offset="0%" stop-color="#00f2fe" stop-opacity="0.9" />
      <stop offset="40%" stop-color="#38bdf8" stop-opacity="0.75" />
      <stop offset="80%" stop-color="#818cf8" stop-opacity="0.6" />
      <stop offset="100%" stop-color="#c084fc" stop-opacity="0.9" />
    </linearGradient>

    <linearGradient id="beamCoreGrad" x1="100%" y1="0%" x2="0%" y2="0%">
      <stop offset="0%" stop-color="#ffffff" />
      <stop offset="50%" stop-color="#e0f2fe" />
      <stop offset="100%" stop-color="#ffffff" />
    </linearGradient>

    <linearGradient id="rubyGlowGrad" x1="0%" y1="0%" x2="100%" y2="100%">
      <stop offset="0%" stop-color="#fecaca" />
      <stop offset="30%" stop-color="#ef4444" />
      <stop offset="70%" stop-color="#b91c1c" />
      <stop offset="100%" stop-color="#7f1d1d" />
    </linearGradient>

    <!-- Cyber Border Gradient -->
    <linearGradient id="borderGlow" x1="0%" y1="0%" x2="100%" y2="100%">
      <stop offset="0%" stop-color="#00f2fe" stop-opacity="0.9" />
      <stop offset="50%" stop-color="#6366f1" stop-opacity="0.4" />
      <stop offset="100%" stop-color="#a855f7" stop-opacity="0.9" />
    </linearGradient>

    <!-- Glow and Blur Filters -->
    <filter id="magicGlow" x="-50%" y="-50%" width="200%" height="200%">
      <feGaussianBlur stdDeviation="4" result="blur" />
      <feComposite in="SourceGraphic" in2="blur" operator="over" />
    </filter>

    <filter id="rubyPulseFilter" x="-60%" y="-60%" width="220%" height="220%">
      <feGaussianBlur stdDeviation="5" result="blur" />
      <feComposite in="SourceGraphic" in2="blur" operator="over" />
    </filter>

    <filter id="softGlow" x="-30%" y="-30%" width="160%" height="160%">
      <feGaussianBlur stdDeviation="2.5" result="blur" />
      <feComposite in="SourceGraphic" in2="blur" operator="over" />
    </filter>

    <!-- Cyber Grid Pattern -->
    <pattern id="cyberGrid" width="28" height="28" patternUnits="userSpaceOnUse">
      <path d="M 28 0 L 0 0 0 28" fill="none" stroke="#1e293b" stroke-width="0.8" stroke-opacity="0.35" />
    </pattern>

    <style>
      .font-title { font-family: -apple-system, BlinkMacSystemFont, 'Segoe UI', Roboto, sans-serif; }
      .font-mono { font-family: 'JetBrains Mono', 'Fira Code', ui-monospace, Menlo, Consolas, monospace; }

      /* Laser Scan */
      @keyframes laserScan {
        0% { transform: translateY(0); opacity: 0; }
        50% { opacity: 0.5; }
        100% { transform: translateY(234px); opacity: 0; }
      }
      @keyframes pulseDot {
        0%, 100% { opacity: 1; transform: scale(1); }
        50% { opacity: 0.3; transform: scale(0.85); }
      }

      /* Frieren Floating Mana Hover Physics */
      @keyframes frierenHover {
        0%, 100% { transform: translateY(0px); }
        50% { transform: translateY(-4px); }
      }

      /* Twintail Hair Dynamics */
      @keyframes hairSwayLeft {
        0%, 100% { transform: rotate(0deg); }
        50% { transform: rotate(3deg); }
      }
      @keyframes hairSwayRight {
        0%, 100% { transform: rotate(0deg); }
        50% { transform: rotate(-4deg); }
      }

      /* Rotating Magic Circles */
      @keyframes runeRotate {
        from { transform: rotate(0deg); }
        to { transform: rotate(360deg); }
      }
      @keyframes runeCounterRotate {
        from { transform: rotate(360deg); }
        to { transform: rotate(0deg); }
      }

      /* Ruby and Blast Pulsing */
      @keyframes rubyPulse {
        0%, 100% { transform: scale(1); opacity: 0.9; }
        50% { transform: scale(1.25); opacity: 1; }
      }

      /* Zoltraak Beam Energy Surge */
      @keyframes beamSurge {
        0%, 100% { opacity: 0.85; transform: scaleY(1); }
        50% { opacity: 1; transform: scaleY(1.3); }
      }

      @keyframes beamCorePulse {
        0%, 100% { opacity: 0.95; transform: scaleY(1); }
        50% { opacity: 1; transform: scaleY(1.4); }
      }

      /* Plasma Rings Traveling Left along the beam */
      @keyframes ringTravel {
        0% { transform: translateX(0px) scale(0.8); opacity: 0.9; }
        50% { opacity: 1; }
        100% { transform: translateX(-90px) scale(1.4); opacity: 0.1; }
      }

      /* Impact Burst Flare */
      @keyframes burstFlash {
        0%, 100% { transform: scale(0.9); opacity: 0.7; }
        50% { transform: scale(1.25); opacity: 1; }
      }

      /* Stardust Twinkle */
      @keyframes stardustTwinkle {
        0%, 100% { opacity: 0.2; transform: scale(0.7); }
        50% { opacity: 1; transform: scale(1.3); }
      }

      .laser { animation: laserScan 4s linear infinite; }
      .live-pulse { animation: pulseDot 2s ease-in-out infinite; }
      .frieren-float { animation: frierenHover 4.5s ease-in-out infinite; }
      .hair-l { transform-origin: 200px 92px; animation: hairSwayLeft 3.5s ease-in-out infinite; }
      .hair-r { transform-origin: 228px 92px; animation: hairSwayRight 4s ease-in-out infinite; }
      
      .rune-spin { transform-origin: 135px 115px; animation: runeRotate 12s linear infinite; }
      .rune-spin-ccw { transform-origin: 135px 115px; animation: runeCounterRotate 8s linear infinite; }
      .ruby-glow { transform-origin: 135px 115px; animation: rubyPulse 2s ease-in-out infinite; }
      
      .beam-aura { transform-origin: 135px 115px; animation: beamSurge 1.8s ease-in-out infinite; }
      .beam-core { transform-origin: 135px 115px; animation: beamCorePulse 1.2s ease-in-out infinite; }
      
      .ring-1 { transform-origin: 135px 115px; animation: ringTravel 2.4s linear infinite; }
      .ring-2 { transform-origin: 135px 115px; animation: ringTravel 2.4s linear infinite 0.8s; }
      .ring-3 { transform-origin: 135px 115px; animation: ringTravel 2.4s linear infinite 1.6s; }

      .impact-flash { transform-origin: 35px 115px; animation: burstFlash 1.5s ease-in-out infinite; }
      .star-1 { animation: stardustTwinkle 2.5s ease-in-out infinite; }
      .star-2 { animation: stardustTwinkle 3.2s ease-in-out infinite 0.8s; }
      .star-3 { animation: stardustTwinkle 2.8s ease-in-out infinite 1.5s; }
    </style>
  </defs>

  <!-- ======================================================== -->
  <!-- 01. MAIN CYBER CONTAINER BOX (x=10, y=8, w=900, h=234)   -->
  <!-- ======================================================== -->
  <g transform="translate(10, 8)">
    <rect width="900" height="234" rx="16" fill="url(#bgGradient)" />
    <rect width="900" height="234" rx="16" fill="url(#glowCyan)" />
    <rect width="900" height="234" rx="16" fill="url(#glowPurple)" />
    <rect width="900" height="234" rx="16" fill="url(#cyberGrid)" />

    <!-- Outer Neon Border Frame -->
    <rect x="1" y="1" width="898" height="232" rx="15" fill="none" stroke="url(#borderGlow)" stroke-width="1.5" />

    <!-- Corner Tech Geometry -->
    <path d="M 12 26 L 12 12 L 26 12" fill="none" stroke="#00f2fe" stroke-width="2.5" />
    <path d="M 874 12 L 888 12 L 888 26" fill="none" stroke="#a855f7" stroke-width="2.5" />
    <path d="M 12 208 L 12 222 L 26 222" fill="none" stroke="#00f2fe" stroke-width="2.5" />
    <path d="M 874 222 L 888 222 L 888 208" fill="none" stroke="#a855f7" stroke-width="2.5" />

    <!-- Animated Laser Scanline -->
    <line x1="20" y1="0" x2="880" y2="0" stroke="#00f2fe" stroke-width="1.5" opacity="0.4" class="laser" />
  </g>

  <!-- ======================================================== -->
  <!-- 02. ZOLTRAAK MAGIC BEAM AND SPELL CIRCLE (FIRING LEFT)   -->
  <!-- ======================================================== -->
  <g id="zoltraak-magic">
    <!-- Magical Back-Nebula Glow -->
    <circle cx="135" cy="115" r="70" fill="url(#magicBlastGlow)" />
    <circle cx="45" cy="115" r="45" fill="url(#magicBlastGlow)" />

    <!-- Outer Rotating Spell Circle (Clockwise) -->
    <g class="rune-spin">
      <circle cx="135" cy="115" r="42" fill="none" stroke="#00f2fe" stroke-width="1.2" stroke-opacity="0.8" stroke-dasharray="8 4 2 4" />
      <circle cx="135" cy="115" r="38" fill="none" stroke="#38bdf8" stroke-width="0.8" stroke-opacity="0.6" />
      
      <!-- 8-Point Runes and Geometric Triangles -->
      <polygon points="135,75 163,131 107,131" fill="none" stroke="#00f2fe" stroke-width="0.8" stroke-opacity="0.5" />
      <polygon points="135,155 163,99 107,99" fill="none" stroke="#00f2fe" stroke-width="0.8" stroke-opacity="0.5" />
      
      <circle cx="135" cy="73" r="2.5" fill="#00f2fe" />
      <circle cx="135" cy="157" r="2.5" fill="#00f2fe" />
      <circle cx="93" cy="115" r="2.5" fill="#00f2fe" />
      <circle cx="177" cy="115" r="2.5" fill="#00f2fe" />
      <circle cx="105" cy="85" r="1.8" fill="#a855f7" />
      <circle cx="165" cy="85" r="1.8" fill="#a855f7" />
      <circle cx="105" cy="145" r="1.8" fill="#a855f7" />
      <circle cx="165" cy="145" r="1.8" fill="#a855f7" />
    </g>

    <!-- Inner Counter-Rotating Spell Circle (Counter-Clockwise) -->
    <g class="rune-spin-ccw">
      <circle cx="135" cy="115" r="28" fill="none" stroke="#c084fc" stroke-width="1" stroke-opacity="0.8" stroke-dasharray="5 3 2 3" />
      <polygon points="135,89 157,128 113,128" fill="none" stroke="#a855f7" stroke-width="0.7" stroke-opacity="0.6" />
      <polygon points="135,141 157,102 113,102" fill="none" stroke="#a855f7" stroke-width="0.7" stroke-opacity="0.6" />
      <circle cx="135" cy="89" r="1.5" fill="#ffffff" />
      <circle cx="135" cy="141" r="1.5" fill="#ffffff" />
      <circle cx="109" cy="115" r="1.5" fill="#ffffff" />
      <circle cx="161" cy="115" r="1.5" fill="#ffffff" />
    </g>

    <!-- Zoltraak Energy Core Beam (Firing Leftwards from x=135 to x=35) -->
    <!-- 1. Wide Aura Glow -->
    <path d="M 135 106 L 35 98 L 35 132 L 135 124 Z" fill="url(#beamAuraGrad)" opacity="0.6" filter="url(#magicGlow)" class="beam-aura" />
    <!-- 2. Mid Plasma Beam -->
    <path d="M 135 110 L 35 104 L 35 126 L 135 120 Z" fill="url(#beamAuraGrad)" opacity="0.85" filter="url(#softGlow)" class="beam-aura" />
    <!-- 3. Core Laser White Line -->
    <path d="M 135 113 L 35 110 L 35 120 L 135 117 Z" fill="url(#beamCoreGrad)" filter="url(#softGlow)" class="beam-core" />
    <line x1="135" y1="115" x2="32" y2="115" stroke="#ffffff" stroke-width="3.5" stroke-linecap="round" class="beam-core" />

    <!-- Pulsing Waveform Arc over Beam -->
    <path d="M 135 115 Q 110 102 85 115 T 35 115" fill="none" stroke="#00f2fe" stroke-width="1.8" opacity="0.8" />
    <path d="M 135 115 Q 110 128 85 115 T 35 115" fill="none" stroke="#c084fc" stroke-width="1.8" opacity="0.8" />

    <!-- Traveling Energy Shockwave Rings -->
    <g>
      <ellipse cx="135" cy="115" rx="4" ry="14" fill="none" stroke="#00f2fe" stroke-width="1.5" class="ring-1" />
      <ellipse cx="135" cy="115" rx="4" ry="14" fill="none" stroke="#ffffff" stroke-width="1.5" class="ring-2" />
      <ellipse cx="135" cy="115" rx="4" ry="14" fill="none" stroke="#c084fc" stroke-width="1.5" class="ring-3" />
    </g>

    <!-- Left Boundary Impact Burst (x=35, y=115) -->
    <g class="impact-flash">
      <!-- Shield Arc -->
      <path d="M 36 78 Q 20 115 36 152" fill="none" stroke="#00f2fe" stroke-width="2.5" stroke-linecap="round" filter="url(#magicGlow)" />
      <path d="M 36 88 Q 24 115 36 142" fill="none" stroke="#ffffff" stroke-width="1.5" stroke-linecap="round" />
      
      <!-- Burst Flares and Stars -->
      <path d="M 35 115 L 18 115 M 35 115 L 52 115 M 35 115 L 35 98 M 35 115 L 35 132" stroke="#ffffff" stroke-width="2" stroke-linecap="round" filter="url(#softGlow)" />
      <path d="M 35 115 L 23 103 M 35 115 L 47 127 M 35 115 L 23 127 M 35 115 L 47 103" stroke="#00f2fe" stroke-width="1.5" stroke-linecap="round" />
      <circle cx="35" cy="115" r="4.5" fill="#ffffff" filter="url(#magicGlow)" />
      
      <!-- Energy Sparks -->
      <circle cx="26" cy="98" r="1.5" fill="#00f2fe" />
      <circle cx="22" cy="128" r="1.5" fill="#c084fc" />
      <circle cx="48" cy="88" r="1.8" fill="#38bdf8" />
      <circle cx="46" cy="138" r="1.8" fill="#a855f7" />
    </g>
  </g>

  <!-- ======================================================== -->
  <!-- 03. FRIEREN VECTOR CHARACTER (葬送のフリーレン)           -->
  <!-- ======================================================== -->
  <g class="frieren-float" id="frieren-vector">
    
    <!-- Magical Mana Hover Disk at Feet -->
    <ellipse cx="218" cy="216" rx="42" ry="7" fill="#00f2fe" fill-opacity="0.25" filter="url(#magicGlow)" />
    <ellipse cx="218" cy="216" rx="26" ry="4" fill="#ffffff" fill-opacity="0.35" />

    <!-- BACK HAIR (Flowing Right Twintail caught in mana wind) -->
    <g class="hair-r">
      <!-- Back hair volume -->
      <path d="M 226 88 C 248 86 270 98 282 120 C 290 136 292 158 284 174 C 278 184 266 186 262 176 C 258 166 262 148 256 138 C 248 126 236 114 226 108 Z" 
            fill="url(#frierenHairGrad)" stroke="#cbd5e1" stroke-width="0.8" />
      <!-- Hair strand highlights -->
      <path d="M 235 95 C 255 98 274 116 280 142 C 282 152 278 165 272 170" fill="none" stroke="#ffffff" stroke-width="1.2" stroke-linecap="round" />
      <path d="M 242 105 C 258 118 268 135 268 155" fill="none" stroke="#a5b4fc" stroke-width="0.8" stroke-opacity="0.6" />
      <!-- Right Hair Ribbon (Dark Slate) -->
      <path d="M 224 88 C 228 84 236 84 238 89 C 235 92 228 93 224 88 Z" fill="#1e293b" />
      <path d="M 235 89 C 242 94 246 102 248 110 C 244 110 238 100 235 89 Z" fill="#334155" />
    </g>

    <!-- BACK CAPELET / ROBE TAIL -->
    <path d="M 224 135 C 246 140 262 155 270 176 C 274 186 268 192 258 194 C 248 195 238 185 232 175 Z" 
          fill="#cbd5e1" stroke="#94a3b8" stroke-width="0.8" opacity="0.7" />

    <!-- INNER SKIRT AND DRESS (Black/Charcoal with Gold Hem) -->
    <!-- Inner Dark Layer -->
    <path d="M 205 158 L 235 158 L 244 206 C 234 210 212 211 198 207 L 205 158 Z" fill="#1e293b" />
    <!-- Skirt Gold Hemline -->
    <path d="M 198 207 C 212 211 234 210 244 206 L 243 201 C 233 205 213 206 200 202 Z" fill="url(#goldTrimGrad)" />

    <!-- WHITE MAIN ROBE / DRESS -->
    <path d="M 208 142 L 232 142 L 240 200 C 228 205 210 205 198 198 L 208 142 Z" 
          fill="url(#frierenRobeGrad)" stroke="#cbd5e1" stroke-width="0.8" />
    <!-- Center Robe Vertical Gold Stripe -->
    <path d="M 218 142 L 220 142 L 217 202 L 215 202 Z" fill="url(#goldTrimGrad)" />
    <!-- Robe Folds / Shading -->
    <path d="M 208 142 L 202 196 C 208 200 216 202 222 202 L 224 142 Z" fill="#f8fafc" opacity="0.6" />

    <!-- WHITE CAPELET AND COLLAR -->
    <path d="M 200 120 C 208 116 226 116 236 122 C 245 130 244 146 236 154 C 224 160 204 158 196 148 C 192 140 194 128 200 120 Z" 
          fill="url(#frierenRobeGrad)" stroke="#cbd5e1" stroke-width="0.9" />
    
    <!-- Capelet Gold Trim Borders -->
    <path d="M 196 148 C 204 158 224 160 236 154 L 238 150 C 226 156 206 154 198 144 Z" fill="url(#goldTrimGrad)" />
    <path d="M 200 120 C 208 116 226 116 236 122 L 238 126 C 226 120 208 120 198 124 Z" fill="url(#goldTrimGrad)" />

    <!-- Shoulder Epaulets (Black and Gold Striped Iconic Frieren Shoulder Accents) -->
    <path d="M 226 122 C 235 125 242 132 242 138 C 238 140 232 136 228 130 Z" fill="#0f172a" stroke="#f59e0b" stroke-width="0.8" />
    <line x1="230" y1="126" x2="238" y2="135" stroke="#f59e0b" stroke-width="1.2" />

    <!-- Golden Brooch / Collar Clasp with Red Gem -->
    <path d="M 206 122 C 209 119 217 119 220 122 C 218 126 215 130 213 134 C 211 130 208 126 206 122 Z" fill="url(#goldTrimGrad)" stroke="#b45309" stroke-width="0.6" />
    <circle cx="213" cy="125" r="2.2" fill="url(#rubyGlowGrad)" />

    <!-- LEFT ARM AND SLEEVE (Holding Staff towards Left) -->
    <!-- White Puffy Sleeve -->
    <path d="M 202 128 C 190 130 180 136 174 144 C 172 148 175 152 180 152 C 188 152 198 146 205 140 Z" 
          fill="url(#frierenRobeGrad)" stroke="#cbd5e1" stroke-width="0.8" />
    <!-- Sleeve Cuff (Black with Gold Strip) -->
    <path d="M 174 144 C 171 146 168 148 168 151 C 172 153 176 152 180 150 Z" fill="#0f172a" stroke="#f59e0b" stroke-width="0.7" />
    <!-- Hand holding the Staff -->
    <path d="M 168 151 C 163 150 158 147 155 143 C 157 140 162 140 166 143 C 168 145 170 148 168 151 Z" fill="url(#frierenSkinGrad)" />

    <!-- RIGHT HAND (Guiding the Staff/Mana) -->
    <path d="M 188 142 C 183 140 178 138 174 135 C 176 132 181 132 185 135 C 188 137 189 140 188 142 Z" fill="url(#frierenSkinGrad)" />

    <!-- HEAD AND NECK -->
    <!-- Neck -->
    <path d="M 208 112 L 217 112 L 217 122 L 208 122 Z" fill="url(#frierenSkinGrad)" />
    
    <!-- Face Contour (Facing 3/4 Left towards the Staff) -->
    <path d="M 197 88 C 193 94 192 102 195 108 C 198 113 205 116 214 116 C 221 116 226 110 227 100 C 228 90 224 82 214 80 C 205 80 199 83 197 88 Z" 
          fill="url(#frierenSkinGrad)" />

    <!-- Soft Cheek Blush -->
    <ellipse cx="199" cy="103" rx="4" ry="2.2" fill="#fca5a5" fill-opacity="0.5" />

    <!-- Anime Eye (Facing Left, Calm Emerald/Cyan Green) -->
    <g id="frieren-eye">
      <!-- Eye White -->
      <path d="M 196 94 C 198 91 204 91 206 94 C 205 98 198 98 196 94 Z" fill="#ffffff" />
      <!-- Emerald Iris -->
      <ellipse cx="201" cy="94" rx="2.5" ry="3.2" fill="#06b6d4" />
      <ellipse cx="201" cy="95" rx="1.8" ry="2.2" fill="#047857" />
      <!-- Pupil and White Highlight Shine -->
      <circle cx="201" cy="94" r="1.1" fill="#0f172a" />
      <circle cx="199.8" cy="92.8" r="0.9" fill="#ffffff" />
      <circle cx="202" cy="95.5" r="0.5" fill="#ffffff" />
      <!-- Eyelashes and Brow -->
      <path d="M 194 92 C 197 89 205 89 208 92" fill="none" stroke="#1e293b" stroke-width="1.3" stroke-linecap="round" />
      <path d="M 196 87 C 199 85 204 85 207 87" fill="none" stroke="#94a3b8" stroke-width="0.8" stroke-linecap="round" />
    </g>

    <!-- Dainty Nose and Gentle Mouth -->
    <path d="M 193 99 L 194 100" stroke="#fca5a5" stroke-width="0.8" stroke-linecap="round" />
    <path d="M 195 106 C 197 107 200 107 202 106" fill="none" stroke="#f43f5e" stroke-width="0.9" stroke-linecap="round" />

    <!-- ELF EAR (Pointed Ear on Right Side with Ruby Earring) -->
    <g id="elf-ear">
      <path d="M 221 88 C 228 85 238 82 245 80 C 243 86 235 92 225 96 C 222 94 221 91 221 88 Z" 
            fill="url(#frierenSkinGrad)" stroke="#fed7aa" stroke-width="0.6" />
      <!-- Inner ear pink shade -->
      <path d="M 225 88 C 230 86 237 84 240 83 C 236 87 231 90 226 92 Z" fill="#fecdd3" opacity="0.6" />
      
      <!-- Iconic Long Red Ruby Drop Earring -->
      <line x1="226" y1="95" x2="226" y2="108" stroke="#f59e0b" stroke-width="0.8" />
      <circle cx="226" cy="96" r="1.2" fill="#fbbf24" />
      <!-- Red Drop Jewel -->
      <path d="M 226 108 C 224 111 224 115 226 117 C 228 115 228 111 226 108 Z" fill="url(#rubyGlowGrad)" stroke="#b91c1c" stroke-width="0.5" filter="url(#softGlow)" />
    </g>

    <!-- FRONT HAIR AND BANGS (Pure Silver/White with Shading) -->
    <g id="front-hair">
      <!-- Forehead Bangs -->
      <path d="M 194 85 C 198 83 205 82 216 82 C 222 82 226 86 226 90 C 222 88 214 86 208 90 C 204 88 198 88 194 85 Z" fill="url(#frierenHairGrad)" />
      <!-- Strand falling over eye/temple -->
      <path d="M 194 84 C 192 90 191 98 193 105 C 195 98 196 92 198 86 Z" fill="#ffffff" stroke="#cbd5e1" stroke-width="0.5" />
      <path d="M 204 82 C 206 88 208 94 207 98 C 209 92 212 87 214 83 Z" fill="#ffffff" />
      <path d="M 215 82 C 218 88 221 95 221 100 C 223 94 224 88 225 84 Z" fill="#f8fafc" />
    </g>

    <!-- LEFT TWINTAIL (Front/Left Pigtail Flowing Forward) -->
    <g class="hair-l">
      <!-- Left Ribbon -->
      <path d="M 198 88 C 195 86 190 88 189 91 C 192 93 196 92 198 88 Z" fill="#1e293b" />
      <!-- Flowing Hair Mass -->
      <path d="M 192 90 C 182 98 174 112 170 128 C 166 144 168 158 175 168 C 178 172 182 170 182 164 C 182 152 184 138 190 124 C 194 114 198 102 196 92 Z" 
            fill="url(#frierenHairGrad)" stroke="#cbd5e1" stroke-width="0.8" />
      <!-- Hair Light Highlights -->
      <path d="M 189 94 C 180 105 174 120 173 138 C 172 150 176 160 178 166" fill="none" stroke="#ffffff" stroke-width="1.1" stroke-linecap="round" />
      <path d="M 193 98 C 186 112 182 128 182 144" fill="none" stroke="#a5b4fc" stroke-width="0.7" stroke-opacity="0.6" />
    </g>

    <!-- ======================================================== -->
    <!-- 04. FRIEREN'S MAGICAL STAFF (POINTING TO THE LEFT)       -->
    <!-- ======================================================== -->
    <g id="frieren-staff">
      <!-- Staff Shaft (Gold from Hand x=168, y=147 to Head x=135, y=115) -->
      <!-- Shadow rod -->
      <line x1="225" y1="185" x2="135" y2="115" stroke="#78350f" stroke-width="5" stroke-linecap="round" />
      <!-- Golden core rod -->
      <line x1="225" y1="185" x2="135" y2="115" stroke="url(#goldStaffGrad)" stroke-width="3.8" stroke-linecap="round" />
      <!-- Highlight rod -->
      <line x1="223" y1="183" x2="137" y2="116" stroke="#fef08a" stroke-width="1.2" stroke-linecap="round" />

      <!-- Staff Head Mounting Ring and Crossbars -->
      <circle cx="135" cy="115" r="7" fill="url(#goldStaffGrad)" stroke="#92400e" stroke-width="0.8" />
      
      <!-- Staff Crescent Horn / Golden Curved Loop Head (Opening towards the Left!) -->
      <path d="M 135 90 C 115 90 102 102 102 115 C 102 128 115 140 135 140 C 122 134 114 125 114 115 C 114 105 122 96 135 90 Z" 
            fill="url(#goldStaffGrad)" stroke="#92400e" stroke-width="1" filter="url(#softGlow)" />
      
      <!-- Crescent Horn Highlights -->
      <path d="M 133 93 C 118 95 108 104 108 115 C 108 126 118 135 133 137" fill="none" stroke="#fef08a" stroke-width="1.2" stroke-linecap="round" />

      <!-- Crescent Horn Top and Bottom Finial Ornaments -->
      <circle cx="135" cy="90" r="3.2" fill="url(#goldStaffGrad)" stroke="#78350f" stroke-width="0.7" />
      <circle cx="135" cy="140" r="3.2" fill="url(#goldStaffGrad)" stroke="#78350f" stroke-width="0.7" />
      <circle cx="135" cy="90" r="1.2" fill="#fef08a" />
      <circle cx="135" cy="140" r="1.2" fill="#fef08a" />

      <!-- Staff Flowing Ribbon / Cloth (Tied under the head) -->
      <path d="M 142 122 C 150 128 156 138 160 148 C 156 148 148 138 142 130 Z" fill="#f8fafc" stroke="#cbd5e1" stroke-width="0.6" />
      <path d="M 144 125 C 154 134 162 146 168 160 C 164 160 154 146 144 134 Z" fill="url(#goldTrimGrad)" opacity="0.8" />

      <!-- FLOATING RED RUBY MANA CORE (Pulsing at Center cx=135, cy=115) -->
      <g class="ruby-glow">
        <circle cx="135" cy="115" r="9" fill="#ef4444" fill-opacity="0.3" filter="url(#rubyPulseFilter)" />
        <circle cx="135" cy="115" r="6" fill="url(#rubyGlowGrad)" stroke="#ffffff" stroke-width="1" filter="url(#softGlow)" />
        <!-- Ruby Facet Highlights -->
        <polygon points="135,110 139,114 135,118 131,114" fill="#ffffff" fill-opacity="0.8" />
        <circle cx="133.5" cy="113.5" r="1.2" fill="#ffffff" />
      </g>
    </g>

    <!-- Floating Stardust Mana Particles around Frieren -->
    <g id="mana-stardust">
      <path d="M 170 70 L 172 74 L 176 76 L 172 78 L 170 82 L 168 78 L 164 76 L 168 74 Z" fill="#00f2fe" class="star-1" />
      <path d="M 265 65 L 266.5 68 L 270 69.5 L 266.5 71 L 265 74 L 263.5 71 L 260 69.5 L 263.5 68 Z" fill="#ffffff" class="star-2" />
      <path d="M 285 110 L 286.5 113 L 290 114.5 L 286.5 116 L 285 119 L 283.5 116 L 280 114.5 L 283.5 113 Z" fill="#c084fc" class="star-3" />
      <path d="M 150 185 L 151.5 188 L 155 189.5 L 151.5 191 L 150 194 L 148.5 191 L 145 189.5 L 148.5 188 Z" fill="#38bdf8" class="star-1" />
      <circle cx="185" cy="62" r="1.5" fill="#fef08a" class="star-2" />
      <circle cx="275" cy="180" r="1.8" fill="#00f2fe" class="star-3" />
      <circle cx="155" cy="95" r="1.2" fill="#ffffff" class="star-1" />
    </g>
  </g>

  <!-- ======================================================== -->
  <!-- 05. RIGHT CONTENT: CYBER IDENTITY AND STATS (x=330..885) -->
  <!-- ======================================================== -->
  <g transform="translate(330, 20)">
    
    <!-- Top Live Status Bar -->
    <g transform="translate(0, 16)">
      <rect width="275" height="24" rx="12" fill="#0f172a" fill-opacity="0.8" stroke="#1e293b" stroke-width="1" />
      <circle cx="14" cy="12" r="4.5" fill="#10b981" class="live-pulse" />
      <circle cx="14" cy="12" r="7" fill="#10b981" fill-opacity="0.25" class="live-pulse" />
      <text x="28" y="16" fill="#34d399" font-size="11" font-weight="700" class="font-mono" letter-spacing="1">SYSTEM: ONLINE │ DEV ACTIVE</text>
    </g>

    <!-- Frieren Anime Tribute Badge -->
    <g transform="translate(290, 16)">
      <rect width="250" height="24" rx="12" fill="#0f172a" fill-opacity="0.8" stroke="#38bdf8" stroke-width="0.8" stroke-opacity="0.6" />
      <text x="14" y="16" fill="#7dd3fc" font-size="11" font-weight="600" class="font-mono" letter-spacing="0.8">✦ ZOLTRAAK • MAGE CLASS</text>
    </g>

    <!-- Main Title: CELL (Thanaphat Chichu) -->
    <g transform="translate(0, 72)">
      <text x="0" y="0" fill="url(#textShimmer)" font-size="34" font-weight="900" class="font-title" letter-spacing="2.5">
        CELL
      </text>
      <text x="110" y="-4" fill="#94a3b8" font-size="16" font-weight="600" class="font-title" letter-spacing="0.5">
        (Thanaphat Chichu)
      </text>
      <text x="0" y="24" fill="#38bdf8" font-size="13" font-weight="700" class="font-mono" letter-spacing="1.8">
        FULL-STACK DEVELOPER &amp; CLOUD ARCHITECT
      </text>
    </g>

    <!-- Tech Stack Feature Badges (Grid 2x2) -->
    <g transform="translate(0, 122)">
      <!-- Badge 1: Next.js and React -->
      <g transform="translate(0, 0)">
        <rect width="265" height="30" rx="8" fill="#0f172a" stroke="#00f2fe" stroke-width="1" stroke-opacity="0.4" />
        <rect x="0" y="0" width="4" height="30" rx="2" fill="#00f2fe" />
        <text x="14" y="19" fill="#e2e8f0" font-size="11.5" font-weight="600" class="font-mono">✦ Next.js • React • TypeScript</text>
      </g>

      <!-- Badge 2: FastAPI and Python -->
      <g transform="translate(280, 0)">
        <rect width="265" height="30" rx="8" fill="#0f172a" stroke="#10b981" stroke-width="1" stroke-opacity="0.4" />
        <rect x="0" y="0" width="4" height="30" rx="2" fill="#10b981" />
        <text x="14" y="19" fill="#e2e8f0" font-size="11.5" font-weight="600" class="font-mono">◈ FastAPI • Python Async • AI</text>
      </g>

      <!-- Badge 3: PostgreSQL and Databases -->
      <g transform="translate(0, 38)">
        <rect width="265" height="30" rx="8" fill="#0f172a" stroke="#6366f1" stroke-width="1" stroke-opacity="0.4" />
        <rect x="0" y="0" width="4" height="30" rx="2" fill="#6366f1" />
        <text x="14" y="19" fill="#e2e8f0" font-size="11.5" font-weight="600" class="font-mono">⬡ PostgreSQL • Prisma • Redis</text>
      </g>

      <!-- Badge 4: Docker and Cloud -->
      <g transform="translate(280, 38)">
        <rect width="265" height="30" rx="8" fill="#0f172a" stroke="#a855f7" stroke-width="1" stroke-opacity="0.4" />
        <rect x="0" y="0" width="4" height="30" rx="2" fill="#a855f7" />
        <text x="14" y="19" fill="#e2e8f0" font-size="11.5" font-weight="600" class="font-mono">⬢ Docker • AWS • Linux DevOps</text>
      </g>
    </g>

    <!-- Bottom Telemetry Specs -->
    <g transform="translate(0, 206)">
      <text x="0" y="0" fill="#64748b" font-size="10.5" font-weight="600" class="font-mono" letter-spacing="1">
        SYS.LOC: BANGKOK (UTC+7) │ STACK: HIGH PERFORMANCE DISTRIBUTED ARCHITECTURE
      </text>
    </g>
  </g>
</svg>